<svg width="50" height="54" viewBox="0 0 50 54" fill="none" xmlns="http://www.w3.org/2000/svg">
<path d="M43.8914 13.6636C41.1351 10.3524 38.4614 8.75677 38.2195 8.61052C37.7941 8.35874 37.3228 8.19402 36.8332 8.12593C36.3435 8.05783 35.8452 8.08771 35.3672 8.21384C34.8892 8.33997 34.4411 8.55983 34.0488 8.86065C33.6565 9.16146 33.3278 9.53724 33.082 9.96614C32.0414 11.7661 32.632 14.0799 34.4058 15.1468H34.4095L34.4151 15.1524H34.4226C34.6139 15.2686 36.5301 16.5211 38.3226 18.7618C40.2033 21.1243 41.947 24.4186 41.9545 28.958C41.9643 33.4777 40.1846 37.8176 37.0045 41.0293C33.9333 44.1286 29.7333 46.0355 25.0608 46.0355C20.392 46.0355 16.192 44.1286 13.1208 41.0293C9.93813 37.82 8.15803 33.4797 8.17076 28.9599C8.18014 24.2724 10.0364 20.9124 11.9864 18.5386C12.7841 17.5738 13.6795 16.6941 14.6583 15.9136C15.0145 15.6268 15.307 15.4186 15.4926 15.2949L15.6876 15.1636L15.712 15.1505L15.7195 15.1468C16.5743 14.6283 17.1917 13.7952 17.4388 12.8265C17.686 11.8578 17.5433 10.8308 17.0414 9.96614C16.7955 9.53727 16.4669 9.1615 16.0747 8.86064C15.6824 8.55978 15.2343 8.33982 14.7564 8.21353C14.2784 8.08725 13.7802 8.05714 13.2905 8.12497C12.8008 8.19279 12.3295 8.3572 11.9039 8.60864C11.6658 8.75489 8.99014 10.3524 6.23577 13.6618C3.49264 16.943 0.65764 22.118 0.667015 28.9561C0.667015 42.5743 11.5889 53.6161 25.0608 53.6218C38.5345 53.6161 49.4545 42.5743 49.4583 28.9561C49.4658 22.1161 46.6326 16.943 43.8895 13.6599L43.8914 13.6636ZM25.0626 30.8574C26.0634 30.8509 27.0206 30.4477 27.7244 29.7362C28.4282 29.0248 28.8209 28.0631 28.8164 27.0624V4.29427C28.8164 2.19802 27.1345 0.499268 25.0626 0.499268C22.9908 0.499268 21.3089 2.19802 21.3089 4.29427V27.0624C21.3089 29.1549 22.9908 30.8574 25.0626 30.8574Z" fill="#58B287"/>
</svg>
